<!-- Generator: Adobe Illustrator 24.2.1, SVG Export Plug-In . SVG Version: 6.00 Build 0)  -->
<svg xmlns="http://www.w3.org/2000/svg" xmlns:xlink="http://www.w3.org/1999/xlink" version="1.1" id="Capa_1" x="0px" y="0px" viewBox="0 0 576 180" style="enable-background:new 0 0 576 180;" xml:space="preserve">
<style type="text/css">
	.st0{display:none;fill:#428F32;}
	.st1{fill:#428F32;}
	.st2{fill:#003762;}
	.st3{font-family:'Montserrat-Bold';}
	.st4{font-size:27.2101px;}
	.st5{fill:none;stroke:#428F32;stroke-width:2;stroke-miterlimit:10;}
	.st6{fill:#009F3C;}
	.st7{fill:url(#SVGID_1_);}
</style>
<path class="st0" d="M527.5,125.3H48.2c-0.6,0-1.1-0.5-1.1-1.1l0,0c0-0.6,0.5-1.1,1.1-1.1h479.3c0.6,0,1.1,0.5,1.1,1.1l0,0  C528.6,124.8,528.1,125.3,527.5,125.3z"/>
<g>
	<g>
		<g>
			<path class="st1" d="M177,12.3v66.1c0,23.2-12.8,34.9-38.6,34.9c-25.6,0-38.5-11.6-38.5-34.9V12.3h29.3v66.9     c0,8.9,1.3,14.9,3.9,18.3c2.6,3.2,7.3,4.9,14.1,4.9c13.3,0,19.9-8,19.9-24V12.3H177z"/>
		</g>
		<g>
			<polygon class="st1" points="263.3,12.3 263.3,111.5 240.8,111.5 198.5,47.5 198.5,111.5 188.8,111.5 188.8,12.3 207.3,12.3      253.4,79.5 253.4,12.3    "/>
		</g>
		<g>
			<path class="st1" d="M277.7,111.5V12.3h43.6c24.7,0,37.1,9.9,37.1,29.7c0,20-13.7,28.2-41.2,28.2H307v41.4     C307,111.5,277.7,111.5,277.7,111.5z M307,60.8h6.5c10.7,0,16-5.2,16-19.4c0-13.2-5.3-19.8-16-19.8H307V60.8z"/>
		</g>
		<g>
			<path class="st1" d="M544.2,12.3v66.1c0,23.2-12.9,34.9-38.6,34.9c-25.6,0-38.5-11.6-38.5-34.9V12.3h29.3v66.9     c0,8.9,1.3,14.9,3.8,18.3c2.5,3.2,7.2,4.9,14.1,4.9c13.3,0,19.9-8,19.9-24V12.3H544.2z"/>
		</g>
		<g>
			<polygon class="st1" points="395.9,61.3 395.9,111.5 366.5,111.5 366.5,12.3 395.9,12.3 395.9,51.1 419.7,51.1 419.7,12.3      449.1,12.3 449.1,111.5 419.7,111.5 419.7,61.3    "/>
		</g>
	</g>
</g>
<path class="st0" d="M568.1,125.6H88.8c-0.6,0-1.1-0.5-1.1-1.1l0,0c0-0.6,0.5-1.1,1.1-1.1h479.3c0.6,0,1.1,0.5,1.1,1.1l0,0  C569.2,125.1,568.7,125.6,568.1,125.6z"/>
<g>
	<text transform="matrix(0.8866 0 0 1 346.8516 160.79)" class="st2 st3 st4">Tienda UnphuCard</text>
	<path class="st2" d="M328.7,140.5h-26.5c-1.4,0-2.7,1-2.7,2.2v16.5c0,1.3,1.1,2.2,2.7,2.2h26.5c1.4,0,2.7-1,2.7-2.2v-16.5   C331.5,141.5,330.3,140.5,328.7,140.5L328.7,140.5z M302.5,142.8h25.9c0.2,0,0.3,0.2,0.3,0.3v1.9h-26.5v-1.9   C302.2,142.8,302.4,142.8,302.5,142.8z M328.4,159.2h-25.9c-0.2,0-0.3-0.2-0.3-0.3v-8h26.5v8C328.7,159.2,328.7,159.2,328.4,159.2z    M310.3,154.5v1.9c0,0.3-0.3,0.6-0.6,0.6h-4c-0.3,0-0.6-0.3-0.6-0.6v-1.9c0-0.3,0.3-0.6,0.6-0.6h4   C309.9,154,310.3,154.2,310.3,154.5z M320.9,154.5v1.9c0,0.3-0.3,0.6-0.6,0.6h-7.6c-0.3,0-0.6-0.3-0.6-0.6v-1.9   c0-0.3,0.3-0.6,0.6-0.6h7.6C320.5,154,320.9,154.2,320.9,154.5z"/>
</g>
<path class="st5" d="M398.9,315"/>
<path class="st1" d="M42.9,319.2"/>
<g>
	<g>
		<path class="st6" d="M267.5,170.4c-2.6,0-4.6-2-4.6-4.6v-14.3c0-2.5,2-4.5,4.5-4.5l15.8-0.1l0.2,4.4l8.9-5.7l-9.4-7l-0.1,3.8    l-17.1,0.3c-4.7,0.1-8.4,3.9-8.4,8.5V167c0,4.5,3.6,8,8,8l64.8,0.2c-0.3-1.6-0.8-3-1.2-4.6h-2.7L267.5,170.4z"/>
		
			<linearGradient id="SVGID_1_" gradientUnits="userSpaceOnUse" x1="32.3" y1="69.8" x2="559.7" y2="69.8" gradientTransform="matrix(1 0 0 1 0 80)">
			<stop offset="0" style="stop-color:#FFFFFF"/>
			<stop offset="0.4565" style="stop-color:#009F3C"/>
		</linearGradient>
		<path class="st7" d="M554.1,123.8H32.3v1.2l520.2,2.8c1.7,0,3,1.5,2.9,3.2l-0.4,36.1c0,2.2-1.8,4.1-3.9,4.1l-56.4-0.2    c0.4,1.6,0.8,3,1.1,4.6l57.1,0.2c3.8,0,6.8-3.2,6.8-7.3v-38.7C559.7,126.5,557.2,123.8,554.1,123.8z"/>
	</g>
	<polygon class="st6" points="388.1,170.9 388.9,175.4 497.9,175.4 496.7,170.9  "/>
</g>
<polygon class="st6" points="327.8,170.7 390.1,170.9 390.1,175.4 324.9,175.2 "/>
</svg>